<svg xmlns="http://www.w3.org/2000/svg" width="15.985" height="17.96" viewBox="0 0 15.985 17.96">
    <g data-name="Group 22688">
        <g data-name="Group 22687">
            <path data-name="Path 16464" d="M38.336 280.976a3.906 3.906 0 0 1-3.162 1.613h-1.821a1.455 1.455 0 0 1-1.368-.959 4.621 4.621 0 0 1-.736-.291 4.953 4.953 0 0 1-1.374-1.017 5.867 5.867 0 0 0-4.6 5.728v.367a.913.913 0 0 0 .913.913h14.16a.913.913 0 0 0 .913-.913v-.367a5.863 5.863 0 0 0-2.925-5.074z" transform="translate(-25.274 -269.37)" fill="currentColor"/>
            <path data-name="Path 16465" d="M92.647 9.072a1.039 1.039 0 0 0 .911-.538l.014.038v.011a4.056 4.056 0 0 0 2.287 2.408 1.453 1.453 0 0 1 1.232-.681h1.821a1.02 1.02 0 0 0 .5-.134A2.059 2.059 0 0 0 100 9.5a5.253 5.253 0 0 0 .455-.963 1.044 1.044 0 0 0 .287.331v.442a1.832 1.832 0 0 1-1.83 1.83h-1.817a.624.624 0 1 0 0 1.247h1.821a3.081 3.081 0 0 0 3.077-3.077v-.446a1.038 1.038 0 0 0 .416-.831v-2.6a1.037 1.037 0 0 0-.431-.843 4.985 4.985 0 0 0-9.938 0 1.038 1.038 0 0 0-.431.843v2.6a1.04 1.04 0 0 0 1.038 1.039zm4.361-7.825a3.743 3.743 0 0 1 3.72 3.367 1.043 1.043 0 0 0-.292.361 3.558 3.558 0 0 0-6.853-.006v.006a1.043 1.043 0 0 0-.292-.361 3.743 3.743 0 0 1 3.718-3.367z" transform="translate(-89.016)" fill="currentColor"/>
        </g>
    </g>
</svg>
