<svg xmlns="http://www.w3.org/2000/svg" width="15.729" height="18.199" viewBox="0 0 15.729 18.199">
    <g>
        <path data-name="Path 16320" d="M16.777 5.39h-5.59a.962.962 0 0 1-.962-.962V2.962A.962.962 0 0 1 11.187 2h5.59a.962.962 0 0 1 .962.962v1.466a.962.962 0 0 1-.962.962z" transform="translate(-6.114 -2)" fill="currentColor"/>
        <path data-name="Path 16321" d="M17.315 4.61H16.5v.731a1.939 1.939 0 0 1-1.937 1.937h-5.59a1.939 1.939 0 0 1-1.937-1.937V4.61h-.809A2.324 2.324 0 0 0 3.9 6.937v11.849a2.324 2.324 0 0 0 2.327 2.327H17.3a2.324 2.324 0 0 0 2.327-2.327V6.937a2.309 2.309 0 0 0-2.312-2.327zm-6.559 9.641h-2.82a.585.585 0 0 1 0-1.17h2.82a.585.585 0 1 1 0 1.17zm3.453-3.32H7.936a.585.585 0 1 1 0-1.17h6.271a.585.585 0 0 1 0 1.17z" transform="translate(-3.9 -2.914)" fill="currentColor"/>
    </g>
</svg>
