<svg xmlns="http://www.w3.org/2000/svg" width="14.708" height="18.07" viewBox="0 0 14.708 18.07" fill="currentColor">
    <path data-name="Path 16444" d="M17.958 2.721v15.968a.63.63 0 0 1-.986.52l-2.1-1.431-1.98 1.422a.629.629 0 0 1-.782-.038l-1.51-1.316-1.5 1.317a.629.629 0 0 1-.782.038l-1.985-1.423-2.1 1.431a.63.63 0 0 1-.986-.52V2.721A1.471 1.471 0 0 1 4.721 1.25h11.766a1.471 1.471 0 0 1 1.471 1.471zM7.242 9.234h6.724a.63.63 0 1 0 0-1.261H7.242a.63.63 0 1 0 0 1.261zm0-3.362h6.724a.63.63 0 0 0 0-1.261H7.242a.63.63 0 0 0 0 1.261zm0 6.724H10.6a.63.63 0 0 0 0-1.261H7.242a.63.63 0 0 0 0 1.261z" transform="translate(-3.25 -1.25)" style="fill-rule:evenodd" fill="currentColor" />
</svg>
