<svg xmlns="http://www.w3.org/2000/svg" width="837.692" height="531.597" viewBox="0 0 837.692 531.597">
  <g id="Layer_2" data-name="Layer 2" transform="translate(-806 318)" opacity="0.05">
    <g id="Layer_1" data-name="Layer 1" transform="translate(806 -318)">
      <path id="Path_19510" data-name="Path 19510" d="M456.912,65.254c-31.674,14.877-63.9,32.3-96.507,51.812A1151.242,1151.242,0,0,0,97.941,330.152a127.3,127.3,0,0,1-1.316-18.98V0H0V311.053c0,3.433.092,6.853.25,10.233,0,1.526.184,3.025.276,4.525.079,1.118.118,2.249.21,3.354,0,.789.145,1.592.21,2.381s.132,1.6.21,2.394v.434c.158,1.552.316,3.091.513,4.643.118,1.026.25,2.026.408,3.052a9.863,9.863,0,0,0,.145,1.065c.039.355.132.96.2,1.421l.079.605c.224,1.513.46,2.986.75,4.472s.5,2.907.776,4.354c.066.316.105.618.158.921v.132l.868,4.183c.329,1.513.7,3,1.052,4.5.171.763.342,1.513.526,2.276q1,4.091,2.183,8.129a2.513,2.513,0,0,0,.171.592c.184.605.355,1.223.539,1.828l.513,1.763a9.633,9.633,0,0,0,.329.987c.381,1.315.8,2.552,1.223,3.8.263.816.552,1.631.842,2.46l.25.723c.526,1.578,1.118,3.117,1.67,4.63s1.25,3.315,1.934,4.959a224.489,224.489,0,0,0,21.335,40.776,229.41,229.41,0,0,0,79.5,73.936l.224-1.381a230.185,230.185,0,0,1,35.514-90s39-63.492,144.083-153.554q28.477-24.387,63.465-51.062c28.635-21.716,59.756-45.919,96.533-67.635C638.654,39.645,707.052,29.122,837.692,6.761,837.692,6.761,657.069-28.753,456.912,65.254Z" fill="#fff"/>
      <path id="Path_19511" data-name="Path 19511" d="M522.465.105,356.508,0H260V103.912c32.305-22.164,78.829-44.972,115.172-58.993C450.12,15.968,515.887,2.736,522.465.105Z" transform="translate(81.991)" fill="#fff"/>
      <path id="Path_19512" data-name="Path 19512" d="M309.566,212.355v47.628A132.087,132.087,0,0,1,177.637,391.9c-1.631,0-3.275,0-4.919-.092a7.194,7.194,0,0,1-.736,0c-1.486-.066-3-.131-4.472-.263a3.259,3.259,0,0,1-.8-.066c-1.394-.132-2.776-.25-4.13-.421-2.276-.25-4.525-.579-6.748-.921-1.315-.237-2.775-.487-4.156-.776s-3.117-.644-4.656-1.026l-.776-.2c-1.513-.355-3.026-.776-4.512-1.2a.324.324,0,0,1-.158,0c-1.578-.447-3.117-.934-4.669-1.447h0c-.289.461-.579.868-.8,1.223a1.313,1.313,0,0,0-.263.395,2.4,2.4,0,0,0-.25.381c-.171.224-.289.421-.395.539a.915.915,0,0,1-.158.263l-.355.579-.382.618a190.412,190.412,0,0,0-29.569,74.9h0l-1.907,11.417h0c1.447.513,2.868,1,4.314,1.447a.158.158,0,0,0,.158.066l3.63,1.157,1.934.579c1.092.329,2.223.645,3.315.934,3.025.868,6.051,1.644,9.1,2.355,1.315.316,2.736.645,4.117.934l.75.2c1.315.25,2.631.54,4.051.8a3.815,3.815,0,0,0,.71.119c1.315.263,2.762.526,4.143.75a1.415,1.415,0,0,0,.355.066c1.487.25,3,.473,4.472.7,4.893.75,9.852,1.315,14.837,1.71,1.42.131,2.868.263,4.314.329s3.21.184,4.827.25,3.249.132,4.893.158,3.249.065,4.88.065c125.971,0,228.463-102.478,228.463-228.45V136.92c-25.583,17.1-50.141,37.224-73.2,54.732C324.956,197.663,317.169,206.344,309.566,212.355Z" transform="translate(32.424 43.178)" fill="#fff"/>
    </g>
  </g>
</svg>
