<svg width="50" height="50" viewBox="0 0 50 50" fill="none" xmlns="http://www.w3.org/2000/svg"><path opacity="0.3" d="M37.5 45.833h-25c-1.25 0 -2.083 -0.833 -2.083 -2.083V16.667l8.333 -8.333h12.5l8.333 8.333v27.083c0 1.25 -0.833 2.083 -2.083 2.083M25 11.458c-1.667 0 -3.125 1.458 -3.125 3.125S23.333 17.708 25 17.708s3.125 -1.458 3.125 -3.125S26.667 11.458 25 11.458" fill="currentColor"/><path d="M25 14.583c-1.25 0 -2.083 -0.833 -2.083 -2.083V6.25c0 -1.25 0.833 -2.083 2.083 -2.083s2.083 0.833 2.083 2.083V12.5c0 1.25 -0.833 2.083 -2.083 2.083m6.458 7.5c0 -0.208 0 -0.417 -0.208 -0.625s-0.417 -0.208 -0.625 -0.208 -0.417 0 -0.625 0.208 -0.208 0.417 -0.417 0.625l-10.833 17.708c-0.208 0.208 -0.208 0.417 -0.208 0.625s0 0.417 0.208 0.625 0.417 0.208 0.625 0.208c0.417 0 0.625 -0.208 1.042 -0.625l10.833 -17.5c0 -0.625 0.208 -0.833 0.208 -1.042M22.917 24.167a6.167 6.167 0 0 0 -0.833 -1.667c-0.417 -0.417 -0.833 -0.833 -1.25 -1.042s-1.042 -0.417 -1.875 -0.417c-1.042 0 -1.667 0.208 -2.292 0.625s-1.042 1.042 -1.25 1.667c-0.208 0.833 -0.417 1.667 -0.417 2.917 0 1.042 0.208 1.875 0.625 2.708s0.833 1.25 1.458 1.667 1.25 0.417 2.083 0.417c1.25 0 2.292 -0.417 2.917 -1.25 0.833 -0.833 1.042 -2.083 1.042 -3.75 0 -0.417 0 -1.25 -0.208 -1.875m-2.5 4.583c-0.208 0.625 -0.625 0.833 -1.25 0.833 -0.417 0 -0.833 -0.208 -1.042 -0.417s-0.417 -0.625 -0.417 -1.042 -0.208 -1.042 -0.208 -1.875 0 -1.458 0.208 -1.875c0 -0.417 0.208 -0.833 0.417 -1.042s0.625 -0.417 1.042 -0.417c0.625 0 1.042 0.208 1.25 0.833s0.417 1.25 0.417 2.5 -0.208 2.083 -0.417 2.5m13.958 4.792c-0.208 -0.625 -0.417 -1.042 -0.833 -1.458s-0.833 -0.833 -1.25 -1.042 -1.042 -0.417 -1.875 -0.417q-2.188 0 -3.125 1.25c-0.625 0.833 -1.042 2.083 -1.042 3.75 0 1.042 0.208 1.875 0.625 2.708 0.417 0.625 0.833 1.25 1.458 1.667s1.25 0.625 2.083 0.625c1.25 0 2.292 -0.417 2.917 -1.25 0.833 -0.833 1.042 -2.083 1.042 -3.75 0.417 -0.625 0.208 -1.458 0 -2.083M31.875 38.333c-0.208 0.625 -0.625 0.833 -1.25 0.833s-1.042 -0.208 -1.25 -0.833 -0.417 -1.458 -0.417 -2.5c0 -0.833 0 -1.458 0.208 -1.875s0.208 -0.833 0.417 -1.042 0.625 -0.417 1.042 -0.417c0.625 0 1.042 0.208 1.25 0.833 0.208 0.417 0.417 1.25 0.417 2.5 0 1.042 -0.208 1.875 -0.417 2.5" fill="currentColor"/></svg>