<svg xmlns="http://www.w3.org/2000/svg" width="191.333" height="191.33" viewBox="0 0 191.333 191.33">
    <g data-name="Group 20514">
        <g data-name="Rectangle 4561" style="fill:#fff;stroke:#e0e0df;stroke-width:.5px">
            <rect width="191.333" height="191.33" rx="10" style="stroke:none"/>
            <rect x=".25" y=".25" width="190.833" height="190.83" rx="9.75" style="fill:none"/>
        </g>
        <g data-name="Group 19572">
            <path data-name="Path 16316" d="M99.58 12.291v31.4a1.319 1.319 0 0 1-1.319 1.319H61.149a1.319 1.319 0 0 1-1.319-1.319V1.319A1.319 1.319 0 0 1 61.149 0h25.982a1.318 1.318 0 0 1 .926.38l11.13 10.971a1.32 1.32 0 0 1 .393.94z" transform="translate(18.096 49.088)" style="fill:#f4f1f1"/>
            <path data-name="Path 16318" d="M369.158 12.291v1.319h-9.812a3.96 3.96 0 0 1-3.955-3.956V0h1.319a1.318 1.318 0 0 1 .926.38l11.13 10.971a1.32 1.32 0 0 1 .393.94z" transform="translate(-251.482 49.088)" style="fill:#e7dfdd"/>
            <path data-name="Path 16319" d="M27.746 134.524v13.845a6.963 6.963 0 0 1-6.955 6.955H6.955A6.963 6.963 0 0 1 0 148.369v-13.845a6.963 6.963 0 0 1 6.955-6.955h13.836a6.963 6.963 0 0 1 6.955 6.955z" transform="translate(72.666 -67.267)" style="fill:#0c831f"/>
            <path data-name="Path 16321" d="m106.958 202.578-4.064-4.064a1.319 1.319 0 0 0-1.865 0l-4.064 4.064a1.319 1.319 0 0 0 1.865 1.865l1.813-1.813v9.577a1.319 1.319 0 0 0 2.637 0v-9.577l1.813 1.813a1.319 1.319 0 0 0 1.865-1.865z" transform="translate(-15.422 -131.623)" style="fill:#f4f1f1"/>
            <text data-name="Click to upload" transform="translate(95.666 118.241)" style="fill:#1a1a1a;font-size:15px;font-family:ProximaNova-Semibold,Proxima Nova;font-weight:600"><tspan x="-50.032" y="0">Click to upload</tspan></text>
            <text data-name="Maximum file size: 5 MB" transform="translate(95.666 138.241)" style="fill:#7c7c7c;font-size:14px;font-family:ProximaNova-Regular,Proxima Nova"><tspan x="-73.682" y="0">Maximum file size: 5 MB</tspan></text>
        </g>
    </g>
</svg>
