<svg width="18" height="24" viewBox="0 0 18 24" fill="none" xmlns="http://www.w3.org/2000/svg">
<path d="M15 19.125H3.375C3.27554 19.125 3.18016 19.0855 3.10983 19.0152C3.03951 18.9448 3 18.8495 3 18.75C3 18.6505 3.03951 18.5552 3.10983 18.4848C3.18016 18.4145 3.27554 18.375 3.375 18.375H15C15.0995 18.375 15.1948 18.4145 15.2652 18.4848C15.3355 18.5552 15.375 18.6505 15.375 18.75C15.375 18.8495 15.3355 18.9448 15.2652 19.0152C15.1948 19.0855 15.0995 19.125 15 19.125ZM7.875 19.875H4.125V22.875C4.125 22.9492 4.14699 23.0217 4.1882 23.0833C4.2294 23.145 4.28796 23.1931 4.35648 23.2214C4.425 23.2498 4.5004 23.2572 4.57314 23.2428C4.64587 23.2283 4.71269 23.1926 4.76513 23.1401L6 21.9053L7.23487 23.1402C7.28731 23.1926 7.35413 23.2283 7.42687 23.2428C7.49961 23.2573 7.57501 23.2498 7.64353 23.2215C7.71205 23.1931 7.77061 23.145 7.81181 23.0833C7.85302 23.0217 7.875 22.9492 7.875 22.875V19.875ZM17.25 2.25V19.5C17.2501 19.697 17.2113 19.8921 17.1359 20.0741C17.0606 20.2561 16.9501 20.4215 16.8108 20.5608C16.6715 20.7001 16.5061 20.8106 16.3241 20.8859C16.1421 20.9613 15.947 21.0001 15.75 21H8.625V20.25H15.75C15.9487 20.2494 16.1392 20.1702 16.2797 20.0297C16.4202 19.8892 16.4994 19.6987 16.5 19.5V17.25H3C2.60218 17.25 2.22064 17.408 1.93934 17.6893C1.65804 17.9706 1.5 18.3522 1.5 18.75C1.5 19.1478 1.65804 19.5294 1.93934 19.8107C2.22064 20.092 2.60218 20.25 3 20.25H3.375V21H3C2.40341 20.9995 1.83139 20.7623 1.40953 20.3405C0.987676 19.9186 0.750472 19.3466 0.75 18.75V3C0.750472 2.40341 0.987676 1.83139 1.40953 1.40953C1.83139 0.987676 2.40341 0.750472 3 0.75H15.75C15.947 0.749944 16.1421 0.788705 16.3241 0.864067C16.5061 0.93943 16.6715 1.04992 16.8108 1.18922C16.9501 1.32851 17.0606 1.4939 17.1359 1.67591C17.2113 1.85792 17.2501 2.053 17.25 2.25ZM3.75 7.875C3.74947 8.32329 3.88326 8.76146 4.13411 9.13299C4.38495 9.50453 4.74136 9.7924 5.15735 9.95947L5.625 10.1492V11.625H12.375V10.1492L12.8427 9.95947C13.3257 9.76478 13.7262 9.40834 13.9756 8.95108C14.225 8.49383 14.3078 7.96414 14.2099 7.45258C14.1121 6.94101 13.8395 6.47933 13.4389 6.14644C13.0383 5.81356 12.5346 5.63015 12.0137 5.62757C11.9128 5.62767 11.812 5.63452 11.712 5.64807L11.209 5.71545L10.9592 5.27381C10.7643 4.92542 10.48 4.63531 10.1356 4.43338C9.79122 4.23145 9.39922 4.125 9 4.125C8.60079 4.125 8.20879 4.23145 7.86441 4.43338C7.52002 4.63531 7.23571 4.92542 7.04078 5.27381L6.79103 5.71545L6.28821 5.64807C5.97102 5.60482 5.64824 5.63017 5.34169 5.72242C5.03515 5.81467 4.75198 5.97167 4.51134 6.1828C4.27071 6.39392 4.07821 6.65426 3.94686 6.9462C3.81551 7.23814 3.74838 7.55488 3.75 7.875ZM12.375 13.5V12.375H5.625V13.5C5.6251 13.5994 5.66464 13.6948 5.73494 13.7651C5.80525 13.8354 5.90057 13.8749 6 13.875H12C12.0994 13.8749 12.1948 13.8354 12.2651 13.7651C12.3354 13.6948 12.3749 13.5994 12.375 13.5Z" fill="white"/>
</svg>
